<svg width="40" height="31" viewBox="0 0 40 31" fill="none" xmlns="http://www.w3.org/2000/svg">
<path d="M28.3333 6.66667H11.6667V8.33333H28.3333V6.66667ZM28.3333 10H11.6667V11.6667H28.3333V10ZM21.6667 13.3333H11.6667V15H21.6667V13.3333ZM36.7367 21.0633C36.8367 21.4883 36.275 21.7533 36.085 21.3033C35.8583 20.7533 35.4917 18.4133 35.1733 16.06C35.0017 14.8 33.3283 14.955 33.3333 16.2567C33.3383 18.2817 33.3367 19.97 33.3333 22.9683C33.33 25.5267 34.495 25.5767 35.355 28.4467C35.5017 28.94 35.6283 29.4767 35.7317 30.0017L40 28.51C38.5117 25.5983 39.23 23.3 39.3783 21.4183C39.5817 18.8467 38.8983 18.5967 35.725 15.505C35.915 16.865 36.3117 19.28 36.7367 21.0633ZM4.275 15.5067C1.10167 18.5967 0.418333 18.8483 0.621667 21.42C0.77 23.3 1.48833 25.5983 0 28.51L4.27 30C4.37333 29.4767 4.5 28.9383 4.64667 28.445C5.505 25.5767 6.67 25.525 6.66667 22.9667C6.66333 19.9667 6.66167 18.28 6.66667 16.255C6.67167 14.9533 4.99667 14.7983 4.82667 16.0583C4.51 18.4117 4.14167 20.7517 3.915 21.3017C3.72667 21.7533 3.165 21.4867 3.26333 21.0617C3.68833 19.28 4.085 16.865 4.275 15.5067ZM8.33333 23.3333L8.34 20H31.66L31.6667 23.3333H8.33333ZM5 13.635V2.5C5 1.12 6.12 0 7.5 0H32.5C33.88 0 35 1.12 35 2.5V13.635C34.77 13.5683 34.53 13.5267 34.2733 13.5267C33.59 13.525 32.92 13.8033 32.4367 14.2883C31.955 14.7717 31.6883 15.4317 31.665 16.1517V3.33333H8.33333V16.1483C8.31 15.4283 8.04333 14.77 7.56167 14.2867C7.07833 13.8017 6.41 13.525 5.725 13.525C5.47167 13.525 5.23167 13.5683 5 13.635Z" fill="white"/>
</svg>
