<svg width="20" height="15" viewBox="0 0 20 15" fill="none" xmlns="http://www.w3.org/2000/svg">
<path d="M0.25 7.32101L7.52 13.812C7.663 13.939 7.841 14.002 8.019 14.002C8.225 14.002 8.429 13.918 8.578 13.753L19.808 1.25201C19.937 1.10901 20 0.931014 20 0.752014C20 0.333014 19.662 0.00201416 19.251 0.00201416C19.045 0.00201416 18.84 0.0860142 18.692 0.251014L7.961 12.196L1.25 6.20201C1.106 6.07501 0.928 6.01201 0.75 6.01201C0.333 6.01201 0 6.34801 0 6.76101C0 6.96701 0.084 7.17301 0.25 7.32101Z" fill="white"/>
</svg>
